<svg width="1170" height="306" viewBox="0 0 1170 306" fill="none" xmlns="http://www.w3.org/2000/svg">
<rect width="1170" height="306" fill="black" fill-opacity="0"/>
<path d="M295 7.35954e-05V4.00007H35C29.2352 4.00304 23.4905 5.76934 18.6044 8.83271C18.2886 9.03673 17.9728 9.23054 17.6672 9.44475C17.4556 9.57235 17.2516 9.71198 17.056 9.86298L16.455 10.3118C16.0577 10.5974 15.6604 10.9034 15.2835 11.2299L14.7131 11.7093L14.0815 12.2397L13.6333 12.658C13.3888 12.8824 13.1545 13.1068 12.9304 13.3414C12.7063 13.576 12.2886 14.0045 11.9728 14.3615C11.6571 14.7185 11.4533 14.9327 11.2088 15.2285C6.52309 20.7983 3.99822 27.7173 4 35.0001C4 35.0001 4.00606 260.272 4 267C3.99394 273.728 6.14297 280.143 10.2004 285.506C10.324 285.691 10.4601 285.869 10.6078 286.036C10.7403 286.22 10.8829 286.393 11.0357 286.566C11.1885 286.74 11.3413 286.944 11.5144 287.138L12.0441 287.658C12.3701 288.035 12.7165 288.392 13.0628 288.739L13.8472 289.494C13.9558 289.61 14.0679 289.712 14.1833 289.8L14.7232 290.28C14.8964 290.443 15.0798 290.596 15.2631 290.739L15.5484 290.973C15.8438 291.218 16.1392 291.442 16.4346 291.657C16.73 291.871 17.0865 292.136 17.4533 292.36C22.5774 295.925 28.581 297.983 34.8201 297.999L284 298V302L34.903 302C27.643 302.011 20.5616 299.746 14.6519 295.523C14.2852 295.271 13.9287 295.006 13.5823 294.727C13.4092 294.605 13.2462 294.472 13.0832 294.339L12.584 293.931C10.5342 292.231 8.68209 290.304 7.06287 288.188C2.36017 282.08 -0.0070789 274.713 5.20278e-05 267L2.60138e-05 35.0001C-0.00990985 26.595 2.82649 18.5981 8.31582 12.2397C8.59086 11.9133 8.87609 11.6073 9.16132 11.2911C11.1804 9.11172 13.4628 7.19281 15.9558 5.5787C21.5999 1.92327 28.2783 -0.0137739 35 6.10352e-05L295 7.35954e-05Z" fill="#121413"/>
<path d="M564 298H315V302H564V298Z" fill="#121413"/>
<path d="M655 0H328V4H655V0Z" fill="#121413"/>
<path d="M881 0H687V4H881V0Z" fill="#121413"/>
<path d="M1170 35.1311V266.87C1169.99 276.184 1166.29 285.114 1159.71 291.7C1153.14 298.286 1144.22 301.99 1134.92 302.001L884 302V298H1134.92C1143.12 297.989 1150.99 294.581 1156.79 288.771C1162.59 282.962 1165.99 275.216 1166 267V35.1311C1165.99 26.9155 1162.59 19.0394 1156.79 13.2301C1150.99 7.42071 1143.2 4.0108 1135 4C1126.8 3.9892 911 4 911 4V0H1134.92C1144.22 0.0107989 1153.14 3.71557 1159.71 10.3016C1166.29 16.8876 1169.99 25.8171 1170 35.1311Z" fill="#121413"/>
<path d="M859 298H608V302H859V298Z" fill="#121413"/>
<path d="M564 306V298H559V306H564Z" fill="#121413"/>
<path d="M613 306V298H608V306H613Z" fill="#121413"/>
</svg>
