<svg width="59" height="24" viewBox="0 0 59 24" fill="none" xmlns="http://www.w3.org/2000/svg">
<path fill-rule="evenodd" clip-rule="evenodd" d="M32.6505 0H25.7767V0.818781C21.2445 1.48206 17.1196 3.3217 13.7565 6H7.4466V24H12.6019V20.7273H15.466V24H17.8527V20.7273H20.7167V24H23.1037V20.7273H25.9677V24H28.3544V20.7273H31.2184V24H33.6051V20.7273H36.4692V24H38.8561V20.7273H41.7202V24H44.1068V20.7273H46.9709V24H51.5534V6H45.3414C41.813 3.19016 37.4464 1.30338 32.6505 0.729625V0ZM15.466 10.3636H12.6019V14.7273H15.466V10.3636ZM17.8527 10.3636H20.7167V14.7273H17.8527V10.3636ZM25.9677 10.3636H23.1037V14.7273H25.9677V10.3636ZM28.3544 10.3636H31.2184V14.7273H28.3544V10.3636ZM36.4692 10.3636H33.6051V14.7273H36.4692V10.3636ZM38.8561 10.3636H41.7202V14.7273H38.8561V10.3636ZM46.9709 10.3636H44.1068V14.7273H46.9709V10.3636Z" fill="#6E7FE1"/>
<path d="M52.1262 9.81818H59V24H52.1262V9.81818Z" fill="#6E7FE1"/>
<path d="M6.87379 9.81818H0V24H6.87379V9.81818Z" fill="#6E7FE1"/>
</svg>
