<svg width="1170" height="302" viewBox="0 0 1170 302" fill="none" xmlns="http://www.w3.org/2000/svg">
<rect width="1170" height="302" fill="black" fill-opacity="0" transform="translate(0.00012207)"/>
<path d="M771 298H740V302H771V298Z" fill="#6E7FE1"/>
<path d="M1004 298H973V302H1004V298Z" fill="#6E7FE1"/>
<path d="M923 298H892V302H923V298Z" fill="#6E7FE1"/>
<path d="M1044 298H1012V302H1044V298Z" fill="#6E7FE1"/>
<path d="M963 298H932V302H963V298Z" fill="#6E7FE1"/>
<path d="M1088 298H1057V302H1088V298Z" fill="#6E7FE1"/>
<path d="M809 298H779V302H809V298Z" fill="#6E7FE1"/>
<path d="M851 298H820V302H851V298Z" fill="#6E7FE1"/>
<path d="M1170 143H1166V160H1170V143Z" fill="#6E7FE1"/>
<path d="M1131 298H1108V302H1131V298Z" fill="#6E7FE1"/>
<path d="M1170 77H1166V98H1170V77Z" fill="#6E7FE1"/>
<path d="M1131 0H1109V4H1131V0Z" fill="#6E7FE1"/>
<path d="M1170 109H1166V131H1170V109Z" fill="#6E7FE1"/>
<path d="M1160.38 17.535L1163.34 14.5768C1161.77 12.4074 1159.96 10.4257 1157.94 8.67059L1155.02 11.5982C1157.05 13.3362 1158.86 15.3318 1160.38 17.535Z" fill="#6E7FE1"/>
<path d="M1170 238.094H1165.86V267.033H1169.94C1169.94 267.033 1169.94 266.921 1169.94 266.87L1170 238.094Z" fill="#6E7FE1"/>
<path d="M729.518 297.86H698.704V301.991H729.518V297.86Z" fill="#6E7FE1"/>
<path d="M1169.99 201.117H1165.86V223.436H1169.99V201.117Z" fill="#6E7FE1"/>
<path d="M1093.29 0H1062.73V4.13127H1093.29V0Z" fill="#6E7FE1"/>
<path d="M1169.99 173.32H1165.86V195.639H1169.99V173.32Z" fill="#6E7FE1"/>
<path d="M196.725 297.86H164.973V301.991H196.725V297.86Z" fill="#6E7FE1"/>
<path d="M151.557 297.86H129.147V301.991H151.557V297.86Z" fill="#6E7FE1"/>
<path d="M239.336 297.86H207.584V301.991H239.336V297.86Z" fill="#6E7FE1"/>
<path d="M279.573 297.86H247.821V301.991H279.573V297.86Z" fill="#6E7FE1"/>
<path d="M112.675 297.86H83.3068V301.991H112.675V297.86Z" fill="#6E7FE1"/>
<path d="M19.1309 8.57876L16.136 5.58997C13.2856 7.43073 10.7129 9.67037 8.49597 12.2408L11.4195 15.1684C13.6151 12.5666 16.2197 10.3409 19.1309 8.57876Z" fill="#6E7FE1"/>
<path d="M1153.42 291.739L1156.35 294.677C1159.27 292.418 1161.81 289.716 1163.9 286.67L1160.91 283.681C1158.91 286.791 1156.37 289.52 1153.42 291.739Z" fill="#6E7FE1"/>
<path d="M10.1869 285.211L7.24292 288.159C9.40435 290.982 11.9762 293.464 14.8727 295.524L17.8371 292.565C14.8866 290.569 12.2991 288.082 10.1869 285.211Z" fill="#6E7FE1"/>
<path d="M64.9708 297.86H38.5568V301.991H64.9708V297.86Z" fill="#6E7FE1"/>
<path d="M429.338 297.86H398.839V301.991H429.338V297.86Z" fill="#6E7FE1"/>
<path d="M511.595 297.86H481.096V301.991H511.595V297.86Z" fill="#6E7FE1"/>
<path d="M553.36 297.86H527.7V301.991H553.36V297.86Z" fill="#6E7FE1"/>
<path d="M643.512 297.86H615.306V301.991H643.512V297.86Z" fill="#6E7FE1"/>
<path d="M469.829 297.86H439.331V301.991H469.829V297.86Z" fill="#6E7FE1"/>
<path d="M351.216 297.86H320.717V301.991H351.216V297.86Z" fill="#6E7FE1"/>
<path d="M391.453 297.86H360.955V301.991H391.453V297.86Z" fill="#6E7FE1"/>
<path d="M690.432 297.86H659.618V301.991H690.432V297.86Z" fill="#6E7FE1"/>
<path d="M1169.99 39.3032H1165.86V62.4282H1169.99V39.3032Z" fill="#6E7FE1"/>
<path d="M286.531 0H274.989V4.13127H286.531V0Z" fill="#6E7FE1"/>
<path d="M233.733 0H211.068V4.13127H233.733V0Z" fill="#6E7FE1"/>
<path d="M260.555 0H240.864V4.13127H260.555V0Z" fill="#6E7FE1"/>
<path d="M173.377 0H150.712V4.13127H173.377V0Z" fill="#6E7FE1"/>
<path d="M203.937 0H181.272V4.13127H203.937V0Z" fill="#6E7FE1"/>
<path d="M404.696 0H383.223V4.13127H404.696V0Z" fill="#6E7FE1"/>
<path d="M377.701 0H356.228V4.13127H377.701V0Z" fill="#6E7FE1"/>
<path d="M1055.07 0H1032.43V4.13127H1055.07V0Z" fill="#6E7FE1"/>
<path d="M350.707 0H329.233V4.13127H350.707V0Z" fill="#6E7FE1"/>
<path d="M433.219 0H411.745V4.13127H433.219V0Z" fill="#6E7FE1"/>
<path d="M4.12572 206.676H0.00012207V230.076H4.12572V206.676Z" fill="#6E7FE1"/>
<path d="M4.12572 140.116H0.00012207V163.323H4.12572V140.116Z" fill="#6E7FE1"/>
<path d="M4.12572 176.166H0.00012207V199.372H4.12572V176.166Z" fill="#6E7FE1"/>
<path d="M4.12572 240.512H0.00012207V263.912H4.12572V240.512Z" fill="#6E7FE1"/>
<path d="M4.12572 107.821H0.00012207V130.263H4.12572V107.821Z" fill="#6E7FE1"/>
<path d="M4.12572 39.4664H0.00012207V61.9079H4.12572V39.4664Z" fill="#6E7FE1"/>
<path d="M64.4614 0H41.796V4.13127H64.4614V0Z" fill="#6E7FE1"/>
<path d="M105.962 0H83.2965V4.13127H105.962V0Z" fill="#6E7FE1"/>
<path d="M4.12572 78.0658H0.00012207V100.507H4.12572V78.0658Z" fill="#6E7FE1"/>
<path d="M144.345 0H121.68V4.13127H144.345V0Z" fill="#6E7FE1"/>
<path d="M874.454 0H853.694V4.13127H874.454V0Z" fill="#6E7FE1"/>
<path d="M846.95 0H826.19V4.13127H846.95V0Z" fill="#6E7FE1"/>
<path d="M791.799 0H771.039V4.13127H791.799V0Z" fill="#6E7FE1"/>
<path d="M819.701 0H798.94V4.13127H819.701V0Z" fill="#6E7FE1"/>
<path d="M1025.95 0H1003.31V4.13127H1025.95V0Z" fill="#6E7FE1"/>
<path d="M995.136 0H972.491V4.13127H995.136V0Z" fill="#6E7FE1"/>
<path d="M935.167 0H915.833V4.13127H935.167V0Z" fill="#6E7FE1"/>
<path d="M963.18 0H940.535V4.13127H963.18V0Z" fill="#6E7FE1"/>
<path d="M556.987 0H533.007V4.13127H556.987V0Z" fill="#6E7FE1"/>
<path d="M764.041 0H743.28V4.13127H764.041V0Z" fill="#6E7FE1"/>
<path d="M602.073 0H578.511V4.13127H602.073V0Z" fill="#6E7FE1"/>
<path d="M491.537 0H470.064V4.13127H491.537V0Z" fill="#6E7FE1"/>
<path d="M517.004 0H497.823V4.13127H517.004V0Z" fill="#6E7FE1"/>
<path d="M646.894 0H623.333V4.13127H646.894V0Z" fill="#6E7FE1"/>
<path d="M736.028 0H715.267V4.13127H736.028V0Z" fill="#6E7FE1"/>
<path d="M710 0H691V4H710V0Z" fill="#6E7FE1"/>
<path d="M461.742 0H440.268V4.13127H461.742V0Z" fill="#6E7FE1"/>
</svg>
