<svg width="1170" height="306" viewBox="0 0 1170 306" fill="none" xmlns="http://www.w3.org/2000/svg">
<rect width="1170" height="306" fill="black" fill-opacity="0"/>
<rect width="1170" height="306" fill="black" fill-opacity="0"/>
<path d="M295 1.25603e-05V4.00001H35C29.2352 4.00298 23.4905 5.76928 18.6044 8.83265C18.2886 9.03666 17.9728 9.23048 17.6672 9.44469C17.4556 9.57228 17.2516 9.71192 17.056 9.86292L16.455 10.3117C16.0577 10.5974 15.6604 10.9034 15.2835 11.2298L14.7131 11.7092L14.0815 12.2397L13.6333 12.6579C13.3888 12.8823 13.1545 13.1067 12.9304 13.3413C12.7063 13.576 12.2886 14.0044 11.9728 14.3614C11.6571 14.7184 11.4533 14.9327 11.2088 15.2285C6.52309 20.7982 3.99822 27.7172 4 35C4 35 4.00606 260.272 4 267C3.99394 273.728 6.14297 280.143 10.2004 285.506C10.324 285.691 10.4601 285.869 10.6078 286.036C10.7403 286.22 10.8829 286.393 11.0357 286.566C11.1885 286.74 11.3413 286.944 11.5144 287.138L12.0441 287.658C12.3701 288.035 12.7165 288.392 13.0628 288.739L13.8472 289.494C13.9558 289.61 14.0679 289.712 14.1833 289.8L14.7232 290.279C14.8964 290.443 15.0798 290.596 15.2631 290.738L15.5484 290.973C15.8438 291.218 16.1392 291.442 16.4346 291.657C16.73 291.871 17.0865 292.136 17.4533 292.36C22.5774 295.925 28.581 297.983 34.8201 297.999L284 298V302L34.903 302C27.643 302.011 20.5616 299.746 14.6519 295.523C14.2852 295.271 13.9287 295.006 13.5823 294.727C13.4092 294.605 13.2462 294.472 13.0832 294.339L12.584 293.931C10.5342 292.231 8.68209 290.304 7.06287 288.188C2.36017 282.08 -0.0070789 274.713 5.20278e-05 267L2.60138e-05 35C-0.00990985 26.595 2.82649 18.5981 8.31582 12.2397C8.59086 11.9133 8.87609 11.6072 9.16132 11.291C11.1804 9.11166 13.4628 7.19275 15.9558 5.57863C21.5999 1.92321 28.2783 -0.013835 35 0L295 1.25603e-05Z" fill="#121413"/>
<path d="M563 298H314V302H563V298Z" fill="#121413"/>
<path d="M654 0H327V4H654V0Z" fill="#121413"/>
<path d="M880 0H686V4H880V0Z" fill="#121413"/>
<path d="M1170 35.1311V266.87C1169.99 276.184 1166.29 285.114 1159.71 291.7C1153.14 298.286 1144.22 301.99 1134.92 302.001L884 302V298H1134.92C1143.12 297.989 1150.99 294.581 1156.79 288.771C1162.59 282.962 1165.99 275.216 1166 267V35.1311C1165.99 26.9155 1162.59 19.0394 1156.79 13.2301C1150.99 7.42071 1143.2 4.0108 1135 4C1126.8 3.9892 911 4 911 4V0H1134.92C1144.22 0.0107989 1153.14 3.71557 1159.71 10.3016C1166.29 16.8876 1169.99 25.8171 1170 35.1311Z" fill="#121413"/>
<path d="M858 298H607V302H858V298Z" fill="#121413"/>
<path d="M563 306V298H558V306H563Z" fill="#121413"/>
<path d="M612 306V298H607V306H612Z" fill="#121413"/>
<rect width="1170" height="302" fill="black" fill-opacity="0" transform="translate(0.00012207)"/>
<path d="M771 298H740V302H771V298Z" fill="#6E7FE1"/>
<path d="M1004 298H973V302H1004V298Z" fill="#6E7FE1"/>
<path d="M923 298H892V302H923V298Z" fill="#6E7FE1"/>
<path d="M1044 298H1012V302H1044V298Z" fill="#6E7FE1"/>
<path d="M963 298H932V302H963V298Z" fill="#6E7FE1"/>
<path d="M1088 298H1057V302H1088V298Z" fill="#6E7FE1"/>
<path d="M809 298H779V302H809V298Z" fill="#6E7FE1"/>
<path d="M851 298H820V302H851V298Z" fill="#6E7FE1"/>
<path d="M1170 143H1166V160H1170V143Z" fill="#6E7FE1"/>
<path d="M1131 298H1108V302H1131V298Z" fill="#6E7FE1"/>
<path d="M1170 77H1166V98H1170V77Z" fill="#6E7FE1"/>
<path d="M1131 0H1109V4H1131V0Z" fill="#6E7FE1"/>
<path d="M1170 109H1166V131H1170V109Z" fill="#6E7FE1"/>
<path d="M1160.38 17.535L1163.34 14.5768C1161.77 12.4074 1159.96 10.4257 1157.94 8.67059L1155.02 11.5982C1157.05 13.3362 1158.86 15.3318 1160.38 17.535Z" fill="#6E7FE1"/>
<path d="M1170 238.094H1165.86V267.033H1169.94C1169.94 267.033 1169.94 266.921 1169.94 266.87L1170 238.094Z" fill="#6E7FE1"/>
<path d="M729.518 297.86H698.704V301.991H729.518V297.86Z" fill="#6E7FE1"/>
<path d="M1169.99 201.117H1165.86V223.436H1169.99V201.117Z" fill="#6E7FE1"/>
<path d="M1093.29 0H1062.73V4.13127H1093.29V0Z" fill="#6E7FE1"/>
<path d="M1169.99 173.32H1165.86V195.639H1169.99V173.32Z" fill="#6E7FE1"/>
<path d="M196.725 297.86H164.973V301.991H196.725V297.86Z" fill="#6E7FE1"/>
<path d="M151.557 297.86H129.147V301.991H151.557V297.86Z" fill="#6E7FE1"/>
<path d="M239.336 297.86H207.584V301.991H239.336V297.86Z" fill="#6E7FE1"/>
<path d="M279.573 297.86H247.821V301.991H279.573V297.86Z" fill="#6E7FE1"/>
<path d="M112.675 297.86H83.3068V301.991H112.675V297.86Z" fill="#6E7FE1"/>
<path d="M19.1309 8.57876L16.136 5.58997C13.2856 7.43073 10.7129 9.67037 8.49597 12.2408L11.4195 15.1684C13.6151 12.5666 16.2197 10.3409 19.1309 8.57876Z" fill="#6E7FE1"/>
<path d="M1153.42 291.739L1156.35 294.677C1159.27 292.418 1161.81 289.716 1163.9 286.67L1160.91 283.681C1158.91 286.791 1156.37 289.52 1153.42 291.739Z" fill="#6E7FE1"/>
<path d="M10.1869 285.211L7.24292 288.159C9.40435 290.982 11.9762 293.464 14.8727 295.524L17.8371 292.565C14.8866 290.569 12.2991 288.082 10.1869 285.211Z" fill="#6E7FE1"/>
<path d="M64.9708 297.86H38.5568V301.991H64.9708V297.86Z" fill="#6E7FE1"/>
<path d="M429.338 297.86H398.839V301.991H429.338V297.86Z" fill="#6E7FE1"/>
<path d="M511.595 297.86H481.096V301.991H511.595V297.86Z" fill="#6E7FE1"/>
<path d="M553.36 297.86H527.7V301.991H553.36V297.86Z" fill="#6E7FE1"/>
<path d="M643.512 297.86H615.306V301.991H643.512V297.86Z" fill="#6E7FE1"/>
<path d="M469.829 297.86H439.331V301.991H469.829V297.86Z" fill="#6E7FE1"/>
<path d="M351.216 297.86H320.717V301.991H351.216V297.86Z" fill="#6E7FE1"/>
<path d="M391.453 297.86H360.955V301.991H391.453V297.86Z" fill="#6E7FE1"/>
<path d="M690.432 297.86H659.618V301.991H690.432V297.86Z" fill="#6E7FE1"/>
<path d="M1169.99 39.3032H1165.86V62.4282H1169.99V39.3032Z" fill="#6E7FE1"/>
<path d="M286.531 0H274.989V4.13127H286.531V0Z" fill="#6E7FE1"/>
<path d="M233.733 0H211.068V4.13127H233.733V0Z" fill="#6E7FE1"/>
<path d="M260.555 0H240.864V4.13127H260.555V0Z" fill="#6E7FE1"/>
<path d="M173.377 0H150.712V4.13127H173.377V0Z" fill="#6E7FE1"/>
<path d="M203.937 0H181.272V4.13127H203.937V0Z" fill="#6E7FE1"/>
<path d="M404.696 0H383.223V4.13127H404.696V0Z" fill="#6E7FE1"/>
<path d="M377.701 0H356.228V4.13127H377.701V0Z" fill="#6E7FE1"/>
<path d="M1055.07 0H1032.43V4.13127H1055.07V0Z" fill="#6E7FE1"/>
<path d="M350.707 0H329.233V4.13127H350.707V0Z" fill="#6E7FE1"/>
<path d="M433.219 0H411.745V4.13127H433.219V0Z" fill="#6E7FE1"/>
<path d="M4.12572 206.676H0.00012207V230.076H4.12572V206.676Z" fill="#6E7FE1"/>
<path d="M4.12572 140.116H0.00012207V163.323H4.12572V140.116Z" fill="#6E7FE1"/>
<path d="M4.12572 176.166H0.00012207V199.372H4.12572V176.166Z" fill="#6E7FE1"/>
<path d="M4.12572 240.512H0.00012207V263.912H4.12572V240.512Z" fill="#6E7FE1"/>
<path d="M4.12572 107.821H0.00012207V130.263H4.12572V107.821Z" fill="#6E7FE1"/>
<path d="M4.12572 39.4664H0.00012207V61.9079H4.12572V39.4664Z" fill="#6E7FE1"/>
<path d="M64.4614 0H41.796V4.13127H64.4614V0Z" fill="#6E7FE1"/>
<path d="M105.962 0H83.2965V4.13127H105.962V0Z" fill="#6E7FE1"/>
<path d="M4.12572 78.0658H0.00012207V100.507H4.12572V78.0658Z" fill="#6E7FE1"/>
<path d="M144.345 0H121.68V4.13127H144.345V0Z" fill="#6E7FE1"/>
<path d="M874.454 0H853.694V4.13127H874.454V0Z" fill="#6E7FE1"/>
<path d="M846.95 0H826.19V4.13127H846.95V0Z" fill="#6E7FE1"/>
<path d="M791.799 0H771.039V4.13127H791.799V0Z" fill="#6E7FE1"/>
<path d="M819.701 0H798.94V4.13127H819.701V0Z" fill="#6E7FE1"/>
<path d="M1025.95 0H1003.31V4.13127H1025.95V0Z" fill="#6E7FE1"/>
<path d="M995.136 0H972.491V4.13127H995.136V0Z" fill="#6E7FE1"/>
<path d="M935.167 0H915.833V4.13127H935.167V0Z" fill="#6E7FE1"/>
<path d="M963.18 0H940.535V4.13127H963.18V0Z" fill="#6E7FE1"/>
<path d="M556.987 0H533.007V4.13127H556.987V0Z" fill="#6E7FE1"/>
<path d="M764.041 0H743.28V4.13127H764.041V0Z" fill="#6E7FE1"/>
<path d="M602.073 0H578.511V4.13127H602.073V0Z" fill="#6E7FE1"/>
<path d="M491.537 0H470.064V4.13127H491.537V0Z" fill="#6E7FE1"/>
<path d="M517.004 0H497.823V4.13127H517.004V0Z" fill="#6E7FE1"/>
<path d="M646.894 0H623.333V4.13127H646.894V0Z" fill="#6E7FE1"/>
<path d="M736.028 0H715.267V4.13127H736.028V0Z" fill="#6E7FE1"/>
<path d="M710 0H691V4H710V0Z" fill="#6E7FE1"/>
<path d="M461.742 0H440.268V4.13127H461.742V0Z" fill="#6E7FE1"/>
<rect width="1162" height="294" fill="black" fill-opacity="0" transform="translate(4 4)"/>
<rect x="116" y="4" width="5" height="53" fill="#121413"/>
<rect x="153" y="4" width="5" height="53" fill="#121413"/>
<rect x="174" y="4" width="5" height="53" fill="#121413"/>
<rect x="194" y="4" width="5" height="53" fill="#121413"/>
<rect x="215" y="4" width="5" height="53" fill="#121413"/>
<rect x="236" y="4" width="5" height="53" fill="#121413"/>
<rect x="290" y="4" width="5" height="53" fill="#121413"/>
<rect x="327" y="4" width="5" height="53" fill="#121413"/>
<rect x="563" y="4" width="5" height="53" fill="#121413"/>
<rect x="593" y="4" width="5" height="53" fill="#121413"/>
<rect x="624" y="4" width="5" height="53" fill="#121413"/>
<rect x="649" y="4" width="5" height="53" fill="#121413"/>
<rect x="686" y="4" width="5" height="53" fill="#121413"/>
<rect x="728" y="4" width="5" height="53" fill="#121413"/>
<rect x="774" y="4" width="5" height="53" fill="#121413"/>
<rect x="821" y="4" width="5" height="53" fill="#121413"/>
<rect x="875" y="4" width="5" height="53" fill="#121413"/>
<rect x="911" y="4" width="5" height="53" fill="#121413"/>
<rect x="968" y="4" width="5" height="53" fill="#121413"/>
<rect x="1026" y="4" width="5" height="53" fill="#121413"/>
<rect x="1056" y="4" width="5" height="53" fill="#121413"/>
<rect x="1099" y="4" width="5" height="53" fill="#121413"/>
<rect x="1166" y="67" width="5" height="53" transform="rotate(90 1166 67)" fill="#121413"/>
<rect x="1166" y="133" width="5" height="53" transform="rotate(90 1166 133)" fill="#121413"/>
<rect x="1166" y="165" width="5" height="53" transform="rotate(90 1166 165)" fill="#121413"/>
<rect x="1166" y="231" width="5" height="53" transform="rotate(90 1166 231)" fill="#121413"/>
<rect x="1103" y="298" width="5" height="53" transform="rotate(-180 1103 298)" fill="#121413"/>
<rect x="966" y="298" width="5" height="53" transform="rotate(-180 966 298)" fill="#121413"/>
<rect x="889" y="298" width="5" height="53" transform="rotate(-180 889 298)" fill="#121413"/>
<rect x="858" y="298" width="5" height="53" transform="rotate(-180 858 298)" fill="#121413"/>
<rect x="779" y="298" width="5" height="53" transform="rotate(-180 779 298)" fill="#121413"/>
<rect x="695" y="298" width="5" height="53" transform="rotate(-180 695 298)" fill="#121413"/>
<rect x="612" y="298" width="5" height="53" transform="rotate(-180 612 298)" fill="#121413"/>
<rect x="563" y="298" width="5" height="53" transform="rotate(-180 563 298)" fill="#121413"/>
<rect x="479" y="298" width="5" height="53" transform="rotate(-180 479 298)" fill="#121413"/>
<rect x="319" y="298" width="5" height="53" transform="rotate(-180 319 298)" fill="#121413"/>
<rect x="284" y="298" width="5" height="53" transform="rotate(-180 284 298)" fill="#121413"/>
<rect x="206" y="298" width="5" height="53" transform="rotate(-180 206 298)" fill="#121413"/>
<rect x="71" y="298" width="5" height="53" transform="rotate(-180 71 298)" fill="#121413"/>
<rect x="4" y="235" width="5" height="53" transform="rotate(-90 4 235)" fill="#121413"/>
<rect x="4" y="168" width="5" height="53" transform="rotate(-90 4 168)" fill="#121413"/>
<rect x="4" y="71" width="5" height="53" transform="rotate(-90 4 71)" fill="#121413"/>
<rect x="67" y="4" width="5" height="54" fill="#121413"/>
</svg>
